<svg width="56" height="56" viewBox="0 0 56 56" fill="none" xmlns="http://www.w3.org/2000/svg">
<rect width="56" height="56" fill="white"/>
<path d="M39.1875 40H34.7188V24C34.7188 23.6875 34.6562 23.3958 34.5312 23.125C34.4167 22.8542 34.2552 22.6198 34.0469 22.4219C33.849 22.2135 33.6146 22.0521 33.3438 21.9375C33.0729 21.8229 32.7812 21.7656 32.4688 21.7656C32.1562 21.7656 31.8646 21.8229 31.5938 21.9375C31.3229 22.0521 31.0833 22.2135 30.875 22.4219C30.6771 22.6198 30.5208 22.8542 30.4062 23.125C30.2917 23.3958 30.2344 23.6875 30.2344 24V40H25.75V24C25.75 23.6875 25.6927 23.3958 25.5781 23.125C25.4635 22.8542 25.3021 22.6198 25.0938 22.4219C24.8958 22.2135 24.6615 22.0521 24.3906 21.9375C24.1198 21.8229 23.8281 21.7656 23.5156 21.7656C23.2031 21.7656 22.9115 21.8229 22.6406 21.9375C22.3698 22.0521 22.1302 22.2135 21.9219 22.4219C21.724 22.6198 21.5677 22.8542 21.4531 23.125C21.3385 23.3958 21.2812 23.6875 21.2812 24V40H16.7969V24C16.7969 23.0729 16.9688 22.2031 17.3125 21.3906C17.6667 20.5677 18.1458 19.8542 18.75 19.25C19.3646 18.6354 20.0781 18.1562 20.8906 17.8125C21.7135 17.4583 22.5885 17.2812 23.5156 17.2812C24.349 17.2812 25.151 17.4323 25.9219 17.7344C26.6927 18.026 27.3854 18.4531 28 19.0156C28.6146 18.4531 29.3021 18.026 30.0625 17.7344C30.8333 17.4323 31.6354 17.2812 32.4688 17.2812C33.3958 17.2812 34.2656 17.4583 35.0781 17.8125C35.901 18.1562 36.6146 18.6354 37.2188 19.25C37.8333 19.8542 38.3125 20.5677 38.6562 21.3906C39.0104 22.2031 39.1875 23.0729 39.1875 24V40Z" fill="#8AA100"/>
<path d="M14.875 44.25H41.1094V44.8906H14.875V44.25Z" fill="#8AA100"/>
</svg>
